HIERARCHY
ROOT Hips
{
	OFFSET -14.64140 90.27770 -84.91600
	CHANNELS 6 Xposition Yposition Zposition Zrotation Xrotation Yrotation
	JOINT Spine
	{
		OFFSET 0.00000 13.20850 -1.60436
		CHANNELS 3 Zrotation Xrotation Yrotation
		JOINT Spine1
		{
			OFFSET 0.00000 8.61716 0.00000
			CHANNELS 3 Zrotation Xrotation Yrotation
			JOINT Spine2
			{
				OFFSET 0.00000 8.61717 0.00000
				CHANNELS 3 Zrotation Xrotation Yrotation
				JOINT Spine3
				{
					OFFSET 0.00000 8.61717 0.00000
					CHANNELS 3 Zrotation Xrotation Yrotation
					JOINT Neck
					{
						OFFSET 0.00000 11.07920 1.10792
						CHANNELS 3 Zrotation Xrotation Yrotation
						JOINT Neck1
						{
							OFFSET 0.00000 7.08032 0.00000
							CHANNELS 3 Zrotation Xrotation Yrotation
							JOINT Head
							{
								OFFSET 0.00000 7.08031 0.00000
								CHANNELS 3 Zrotation Xrotation Yrotation
								End site
								{
									OFFSET 0.00000 0.00000 0.00000
								}
							}
						}
					}
					JOINT RightShoulder
					{
						OFFSET -0.01000 7.91373 5.19711
						CHANNELS 3 Zrotation Xrotation Yrotation
						JOINT RightArm
						{
							OFFSET -18.41580 0.00000 0.00000
							CHANNELS 3 Zrotation Xrotation Yrotation
							JOINT RightForeArm
							{
								OFFSET -29.11090 0.00000 0.00000
								CHANNELS 3 Zrotation Xrotation Yrotation
								JOINT RightHand
								{
									OFFSET -24.65040 0.00000 0.00000
									CHANNELS 3 Zrotation Xrotation Yrotation
									JOINT RightHandThumb1
									{
										OFFSET -5.35114 -0.85590 3.97906
										CHANNELS 3 Zrotation Xrotation Yrotation
										JOINT RightHandThumb2
										{
											OFFSET -4.52789 0.00000 0.00000
											CHANNELS 3 Zrotation Xrotation Yrotation
											JOINT RightHandThumb3
											{
												OFFSET -2.46976 0.00000 0.00000
												CHANNELS 3 Zrotation Xrotation Yrotation
												End site
												{
													OFFSET 0.00000 0.00000 0.00000
												}
											}
										}
									}
									JOINT RightHandIndex1
									{
										OFFSET -14.26970 0.00000 2.88139
										CHANNELS 3 Zrotation Xrotation Yrotation
										JOINT RightHandIndex2
										{
											OFFSET -5.48836 0.00000 0.00000
											CHANNELS 3 Zrotation Xrotation Yrotation
											JOINT RightHandIndex3
											{
												OFFSET -3.01859 0.00000 0.00000
												CHANNELS 3 Zrotation Xrotation Yrotation
												End site
												{
													OFFSET 0.00000 0.00000 0.00000
												}
											}
										}
									}
									JOINT RightHandMiddle1
									{
										OFFSET -14.26970 0.00000 -0.09147
										CHANNELS 3 Zrotation Xrotation Yrotation
										JOINT RightHandMiddle2
										{
											OFFSET -6.17441 0.00000 0.00000
											CHANNELS 3 Zrotation Xrotation Yrotation
											JOINT RightHandMiddle3
											{
												OFFSET -3.56743 0.00000 0.00000
												CHANNELS 3 Zrotation Xrotation Yrotation
												End site
												{
													OFFSET 0.00000 0.00000 0.00000
												}
											}
										}
									}
									JOINT RightHandRing1
									{
										OFFSET -12.69180 0.00000 -3.06433
										CHANNELS 3 Zrotation Xrotation Yrotation
										JOINT RightHandRing2
										{
											OFFSET -5.62556 0.00000 0.00000
											CHANNELS 3 Zrotation Xrotation Yrotation
											JOINT RightHandRing3
											{
												OFFSET -3.56744 0.00000 0.00000
												CHANNELS 3 Zrotation Xrotation Yrotation
												End site
												{
													OFFSET 0.00000 0.00000 0.00000
												}
											}
										}
									}
									JOINT RightHandPinky1
									{
										OFFSET -11.11390 0.00000 -6.03719
										CHANNELS 3 Zrotation Xrotation Yrotation
										JOINT RightHandPinky2
										{
											OFFSET -4.52789 0.00000 0.00000
											CHANNELS 3 Zrotation Xrotation Yrotation
											JOINT RightHandPinky3
											{
												OFFSET -2.46976 0.00000 0.00000
												CHANNELS 3 Zrotation Xrotation Yrotation
												End site
												{
													OFFSET 0.00000 0.00000 0.00000
												}
											}
										}
									}
								}
							}
						}
					}
					JOINT LeftShoulder
					{
						OFFSET 0.01000 7.91373 5.19711
						CHANNELS 3 Zrotation Xrotation Yrotation
						JOINT LeftArm
						{
							OFFSET 18.41580 0.00000 0.00000
							CHANNELS 3 Zrotation Xrotation Yrotation
							JOINT LeftForeArm
							{
								OFFSET 29.11090 0.00000 0.00000
								CHANNELS 3 Zrotation Xrotation Yrotation
								JOINT LeftHand
								{
									OFFSET 24.65040 0.00000 0.00000
									CHANNELS 3 Zrotation Xrotation Yrotation
									JOINT LeftHandThumb1
									{
										OFFSET 5.35114 -0.85590 3.97906
										CHANNELS 3 Zrotation Xrotation Yrotation
										JOINT LeftHandThumb2
										{
											OFFSET 4.52789 0.00000 0.00000
											CHANNELS 3 Zrotation Xrotation Yrotation
											JOINT LeftHandThumb3
											{
												OFFSET 2.46977 0.00000 0.00000
												CHANNELS 3 Zrotation Xrotation Yrotation
												End site
												{
													OFFSET 0.00000 0.00000 0.00000
												}
											}
										}
									}
									JOINT LeftHandIndex1
									{
										OFFSET 14.26970 0.00000 2.88139
										CHANNELS 3 Zrotation Xrotation Yrotation
										JOINT LeftHandIndex2
										{
											OFFSET 5.48836 0.00000 0.00000
											CHANNELS 3 Zrotation Xrotation Yrotation
											JOINT LeftHandIndex3
											{
												OFFSET 3.01859 0.00000 0.00000
												CHANNELS 3 Zrotation Xrotation Yrotation
												End site
												{
													OFFSET 0.00000 0.00000 0.00000
												}
											}
										}
									}
									JOINT LeftHandMiddle1
									{
										OFFSET 14.26970 0.00000 -0.09147
										CHANNELS 3 Zrotation Xrotation Yrotation
										JOINT LeftHandMiddle2
										{
											OFFSET 6.17440 0.00000 0.00000
											CHANNELS 3 Zrotation Xrotation Yrotation
											JOINT LeftHandMiddle3
											{
												OFFSET 3.56744 0.00000 0.00000
												CHANNELS 3 Zrotation Xrotation Yrotation
												End site
												{
													OFFSET 0.00000 0.00000 0.00000
												}
											}
										}
									}
									JOINT LeftHandRing1
									{
										OFFSET 12.69180 0.00000 -3.06433
										CHANNELS 3 Zrotation Xrotation Yrotation
										JOINT LeftHandRing2
										{
											OFFSET 5.62556 0.00000 0.00000
											CHANNELS 3 Zrotation Xrotation Yrotation
											JOINT LeftHandRing3
											{
												OFFSET 3.56744 0.00000 0.00000
												CHANNELS 3 Zrotation Xrotation Yrotation
												End site
												{
													OFFSET 0.00000 0.00000 0.00000
												}
											}
										}
									}
									JOINT LeftHandPinky1
									{
										OFFSET 11.11390 0.00000 -6.03719
										CHANNELS 3 Zrotation Xrotation Yrotation
										JOINT LeftHandPinky2
										{
											OFFSET 4.52789 0.00000 0.00000
											CHANNELS 3 Zrotation Xrotation Yrotation
											JOINT LeftHandPinky3
											{
												OFFSET 2.46976 0.00000 0.00000
												CHANNELS 3 Zrotation Xrotation Yrotation
												End site
												{
													OFFSET 0.00000 0.00000 0.00000
												}
											}
										}
									}
								}
							}
						}
					}
					JOINT pCube4
					{
						OFFSET 0.00000 10.91090 1.10792
						CHANNELS 3 Zrotation Xrotation Yrotation
						End site
						{
							OFFSET 0.00000 0.00000 0.00000
						}
					}
				}
			}
		}
	}
	JOINT RightUpLeg
	{
		OFFSET -9.98441 0.00000 0.00000
		CHANNELS 3 Zrotation Xrotation Yrotation
		JOINT RightLeg
		{
			OFFSET 0.00000 -42.11790 0.00000
			CHANNELS 3 Zrotation Xrotation Yrotation
			JOINT RightFoot
			{
				OFFSET 0.00000 -45.00020 -0.00001
				CHANNELS 3 Zrotation Xrotation Yrotation
				JOINT RightForeFoot
				{
					OFFSET 0.00000 -3.74820 0.00000
					CHANNELS 3 Zrotation Xrotation Yrotation
					JOINT RightToeBase
					{
						OFFSET 0.00000 0.06325 14.43120
						CHANNELS 3 Zrotation Xrotation Yrotation
						End site
						{
							OFFSET 0.00000 0.00000 0.00000
						}
					}
				}
			}
		}
	}
	JOINT LeftUpLeg
	{
		OFFSET 9.98441 0.00000 0.00000
		CHANNELS 3 Zrotation Xrotation Yrotation
		JOINT LeftLeg
		{
			OFFSET 0.00000 -42.11800 0.00000
			CHANNELS 3 Zrotation Xrotation Yrotation
			JOINT LeftFoot
			{
				OFFSET 0.00000 -45.00070 0.00000
				CHANNELS 3 Zrotation Xrotation Yrotation
				JOINT LeftForeFoot
				{
					OFFSET 0.00000 -3.74824 0.00000
					CHANNELS 3 Zrotation Xrotation Yrotation
					JOINT LeftToeBase
					{
						OFFSET 0.00000 0.06325 14.43110
						CHANNELS 3 Zrotation Xrotation Yrotation
						End site
						{
							OFFSET 0.00000 0.00000 0.00000
						}
					}
				}
			}
		}
	}
}
MOTION
Frames: 4
Frame Time: 0.050000
-0.004801901327191048 -0.022634869663021542 0.020482524719594587 0.0034681578361638148 -0.044570422692336666 -0.03246229321637754 -3.2234675115478866 8.562595851825936 -0.6648622408360976 -0.8533476432471042 3.185993794002596 0.435254078235687 -0.8939474211767549 0.23447065988934152 -1.7088827520542325 -0.13040513289745914 0.5693213904708884 -1.0435328630195637 -0.515146032611546 8.741732401827466 0.2786098630258063 -0.3030421709808403 -1.1691778392476375 -2.473596328234959 -0.20478416393579418 -15.63918482038222 -0.1329638368779048 3.0941580754202094 0.01123113310558967 -9.91215001598312 61.04501838210238 2.4773494214576446 22.10865235514441 6.355171855220792 4.356263247187057 98.1234050636825 16.17269055824631 -0.41807490767488636 -5.572925209789265 4.55808063246257 -0.1016719714113287 -1.6353559003574925 0.04285415466011423 0.03784161153729673 -56.255624376879176 0.002612483631399363 0.005167004306419456 -56.206929340716144 -38.8003738251283 -0.005514100276725476 0.023261401206315636 -0.010075551841681645 -0.021183367082001695 0.006468615989993757 0.043089909392985744 0.00892177861107943 0.010423441902272814 -36.70351993439943 -0.00804751365635696 -0.036720838741564434 -0.004530228999889456 -0.005998541500521238 -0.022079836337339533 0.025104756112929016 -0.031872921541120466 -0.038727886759865604 -19.715243984388668 0.015428649989556282 0.015288165800323373 -0.04902673076379817 0.027521482112007535 0.045054715814134845 0.049917423663408705 -0.026687791296904555 0.004735562928603584 24.067197495717956 0.014814004316610032 0.03914802186343056 28.84330683082815 0.011589322438817922 0.02767546106821749 28.879148405208806 0.024364887942514922 -0.014836038827691956 -0.16020159586108565 0.5240428949510664 8.812204384610608 -54.90636127050398 20.773575847378726 -32.39343386975213 16.34226143110198 -12.52902468129119 -105.59870978822977 -3.2137400333336266 1.8229200896574054 -4.051400711639165 -0.5040199077709543 0.10243050826675595 -8.168123441056597 -0.011150874505520504 -0.04613080346950094 44.56897003646272 -0.009440871049578536 -0.005917713267445426 44.553889424959934 12.510006693453889 -0.015577983022838412 0.034532551132758826 0.02097276280622025 -0.02718616210238575 -0.04153166736829769 -0.0373135796095758 -0.015804996033593796 0.008599745960135482 11.095858995075654 0.03572274596421337 0.018067661864579206 0.04164352830682759 -0.0006894117231325172 -0.013147556795869143 -0.046995738088868116 -0.044983570241612675 -0.0063548217793978285 4.787247847538517 0.03882368634142858 -0.03580499768123077 -0.007332493274523749 0.04436351884696249 0.039194967308707494 -0.030938336796506583 -0.010431192984473406 0.0010455166457057422 -5.604292175268862 0.01438706786480719 -0.014806885132476199 -6.6817057510682 0.032295452834496405 -0.005426414697395597 -6.7426862163126735 -0.00415267523630464 -0.03281863849301599 0.0008915606946722281 -0.03616112287659085 0.01877300399900662 8.04817856431002 3.535367054335404 -19.199814940483538 0.017143163528712545 10.389380015879752 0.059692910912557864 -5.635137727981871 -15.636330010010703 3.195479976402002 -0.003207902695859121 0.03737549712607989 -0.041986983133472544 0.04994857603439138 4.739106884925571 -0.022665005985708777 12.46614049502208 -8.268682095710917 6.834711792641043 -0.026036449281462683 46.365519992817276 -0.02256138153485124 -4.361498833140259 -14.747070773701976 -3.867429615521357 -0.04006896512050885 0.0005445931289888592 -0.025292776410601382 -0.008700246894232138 -10.78195447195077 0.008818391374733779 
0.0185630489422181 -0.0017679840543309369 0.02488215449115432 -0.04449195479616961 0.03935551130805815 -0.0180653509883579 -3.379408469259915 8.669149645948249 -0.6111385051737098 -0.7822008575959797 3.1702543107998378 0.38457820679178806 -0.9424007818471852 0.24800185514355705 -1.7445164024853388 -0.15647117487650894 0.6172417385227205 -1.0421139405089908 -0.6056829927808024 8.756017660589375 0.37848861674496126 -0.2721500325569459 -1.1086263191537173 -2.3993244590064733 -0.2499595944042442 -15.623247101313906 -0.11986660446337666 3.2005194121239593 -0.00757178304315664 -9.827478470397269 60.29135223024918 1.8160814586171936 22.28857545050016 4.818393802549764 3.9051379186186663 98.4516043562561 16.308555059282646 -0.3939238393908024 -5.289147069730065 4.555425817259863 -0.12267734742309275 -1.5535674475272132 0.01835403813686558 0.02800075149409947 -56.23245894213386 -0.03944757018801733 -0.024310978947542528 -56.26439079781281 -38.762382967576535 0.020464138368627004 0.021548224945997584 -0.00798590416287785 -0.03462307383255862 0.0494034932316458 0.04672180916926351 -0.02766033830108011 -0.021268721236289687 -36.65079308496842 -0.004705030426670989 0.013791183225471527 0.030612259383041806 0.014948198332295316 0.043448189153452076 0.023706088006628344 -0.011628083852058858 -0.03258501675208698 -19.75653774792677 0.030893193468435734 -0.027617193193284893 0.030925153871508126 -0.0012695186486090815 0.004393989529428554 -0.0034060275486570805 0.02007792830974168 0.046615230019052954 24.059390331694598 0.042013160723237804 -0.0015981757716345437 28.87163721126314 0.043686400289385675 -0.01465037463260133 28.841791577948978 0.021625951383713354 0.011455859340092484 -0.2586515870803982 0.5302413455168906 8.827633618609802 -53.81441856959487 20.42896354168902 -32.760623770421 21.05019461529712 -14.017310039905627 -107.23659541009755 -2.5587823799345006 2.340897633171098 -4.879129727137569 -0.5008535930007678 0.05252574176869737 -8.138306356849064 0.03333854236093118 0.0443263172781415 44.55270300435729 -0.04114453019239958 -0.005746068592714112 44.564829264377295 12.449940392534753 0.009327132148577185 -0.041441391850006795 -0.03961828984273633 -0.02995034255595761 0.007237395278518 -0.03163084710137399 -0.04472779195650472 0.0422500733546734 11.153738027046868 0.004064341080020219 0.00932691668740841 -0.049337489251896835 -0.02621429035061922 0.015630153272320375 -0.01918360031081963 0.0032133089080988316 -0.004325996317646177 4.749753253624665 -0.01591535543925599 0.024367113304522976 0.04742981225399598 -0.014700274673837044 0.00864474276120275 0.0393389804984739 -0.035734394877581926 0.019496246279067847 -5.5922918363198235 -0.022922820242883665 -0.0274732930536188 -6.702753492623644 0.030840085928316375 0.02500009788113719 -6.6719437826712 0.008158085649182268 0.010872424876420398 -0.035388835379642346 -0.007640498374080296 0.040269735194544035 8.031636478482755 3.5391836431382586 -19.259937242921826 0.013032717239404665 10.398365305544965 0.010658746716231994 -5.607534618820274 -15.648346578050244 3.1728440549716064 -0.02308562527878438 -0.023106581532276346 -0.0031814539046754174 -0.02610453069280428 4.685490855817202 -0.007957223183713152 12.438039971765502 -8.267491875992043 6.872671225200592 -0.032758099388668124 46.38682400697349 -0.04117637032849258 -4.355070784038601 -14.756012335515294 -3.8502059689084476 -0.011083510718751143 0.028783009985983994 -0.04843720590682165 0.0009177337885444108 -10.732587485911498 0.02754303239621099 
0.009623356397134375 -0.0338361348045693 -0.0027897361503748832 0.027669178871240527 0.04636612875007263 0.02861775731344321 -3.379258206373593 8.768823321922161 -0.6096238087790503 -0.8335771703562213 3.159578832965908 0.4025337408030904 -0.8835558510570691 0.23216148355372962 -1.6657581403411497 -0.20093236605388326 0.5736554682696036 -1.0609089085221313 -0.5827965256527043 8.769500813433776 0.34342807626430455 -0.29793206468592326 -1.1246913142651607 -2.3692546625118167 -0.26834232370945765 -15.50030383512316 -0.14378895369024813 3.175565988834347 0.03471832930175469 -9.816261979725795 59.5698780666538 1.3730560168985577 22.385833636329686 3.5798362147656118 3.3752872961986253 98.54818015380121 16.409684280958917 -0.4290046030873084 -5.016517957357609 4.507753035100492 -0.114219225499795 -1.5464749332643957 -0.0025149529068514516 -0.04381651672894204 -56.27156920511871 0.036639811641048535 -0.040867076803666996 -56.27058364666305 -38.81647458080597 0.01879992777328827 0.012934189587629187 0.015238370878654803 -0.03841982637329481 0.04196342590024135 0.03622348028262248 -0.019713816235179274 0.024751516990152857 -36.69201985339022 -0.02080728275277009 0.0059421085338487506 -0.006869717385182902 0.009307841172325885 -0.001717292327373935 -0.0452446657117871 0.04469461106445443 0.022760679865893224 -19.76957096009136 -0.03790232021528223 0.03750261831453552 0.017239970870791082 -0.006824078830124606 0.006938878128599672 -0.010622461068176216 -0.004935428876458098 0.013445091865639408 24.036911244347213 -0.04727537612518116 -0.003476612843789083 28.846354236474777 0.009004140309513152 -0.010827068287270774 28.882791133707546 0.022883843241439727 0.010874773804351697 -0.2561408052884414 0.5028594623174178 8.813593390647434 -52.855090246837776 20.079513419431564 -32.878545147922004 25.00459440826118 -15.202120534658636 -108.34188051034735 -2.155600193472665 2.747980977315585 -5.63679679423453 -0.4739274621854018 0.10149349531118229 -8.081584359165102 0.0333789714224705 0.03875121004574055 44.553443548346024 -0.028677174997803513 0.0021178089240468977 44.58784012313039 12.447720216443312 -0.027677461494430004 0.020479604045092772 0.006097578237518347 -0.004737509378107669 0.03394887663192553 0.029212277425246624 0.03313053164190156 0.033727383955290346 11.150914865794148 -0.00748752704183471 0.002032568948144702 0.04253920489390979 0.02227313698281458 0.015423771598132656 0.0382170298158705 0.026448253198627304 0.020378222014034178 4.730377582479221 0.019303138183280093 0.034281581582121114 -0.0313115922661104 0.0342007925195292 -0.031245035453427314 -0.004258809909479151 -6.778434039648875e-05 -0.01689015528577622 -5.581946282284095 0.009862982758145632 0.048443072538787185 -6.768984518814854 -0.029545433947621845 0.028915259695349402 -6.720503936954182 0.02144284681256768 -0.008595282764017671 0.019326355725378302 -0.010089873334526154 0.021211299593704745 8.07467340093654 3.4918066455345405 -19.232518181269377 -0.04287245126095027 10.38149700659266 0.018076580588064835 -5.591532000772144 -15.68346447201289 3.1617344402732273 0.03615728489504505 -0.04305513522211684 0.0008599362156274723 -0.03192503609343596 4.688801981583889 0.04013441115070413 12.436158261598852 -8.27799713885929 6.854872198509558 0.014584875598965194 46.41534334734311 0.030227977659773368 -4.301930541987212 -14.782812125515374 -3.833393635107368 -0.04166568448513094 -0.022136088454743314 0.031452613317054 -0.04522440559001173 -10.754687961930312 -0.002759726708009863 
-0.020267610682678367 0.009736068415963138 0.015154209869620362 0.014305046855370266 -0.004908452169217406 -0.04862705450088911 -3.3541316797999206 8.783760376542745 -0.6248736048196867 -0.8320829783494169 3.176314638335885 0.3509147360864554 -0.8976019288835216 0.25168980101671473 -1.6556021714476041 -0.17456401385937725 0.6093262878411013 -1.0600097903119357 -0.51675314332081 8.844257422612587 0.3446080193702783 -0.26320741563584094 -1.1187455566442535 -2.446667989907658 -0.2594754213951747 -15.518920358995127 -0.16452721664713368 3.0954151091089703 0.03657698987081642 -9.759369406420209 59.384582225743 1.3022687178739203 22.958341473575686 2.7891923246961134 3.034106733555533 98.26460612736642 16.45435129592022 -0.4636956837640924 -4.840084263034044 4.494542543320827 -0.11997955651514174 -1.5628659846627924 -0.04834033131186779 -0.046430291814521796 -56.21993373650179 0.04853218111619995 0.019928385724094586 -56.24987858183825 -38.72597080339073 -0.001992259855603853 0.001112289422830808 0.033527367021183085 -0.02763961473545252 -0.03748144735156533 -0.015280393720433723 0.0060245332340096965 -0.00889910043999104 -36.685217949883295 -0.015602142740171463 -0.0031738434434543388 -0.0013158467195004977 -0.013428711665078752 0.016457129558148834 0.020774275476521768 -0.0048097876221357425 -0.018222569980675136 -19.72971881238473 0.04403682997554054 -0.03223147911464008 -0.027638049509181382 0.004436264480100318 0.022572441240341867 0.03405521629397853 -0.010716905369924286 0.01292934364969907 24.026072426481072 0.011648511641890302 -0.02924460077269061 28.88841221047119 -0.02264792734695645 -0.020780425917468974 28.878611422159185 -0.01660593669178172 -0.01876536395139687 -0.23636773798126004 0.485770949696754 8.89905180139003 -52.43478017907297 20.12826089836094 -33.29075904512052 27.064804063909182 -15.78520960192561 -108.42496393711998 -1.9575793395891674 3.105411340312672 -5.979063946289661 -0.5145169715225693 0.03318068347391832 -8.114385671574018 0.01309295889423241 0.019505818854950306 44.58421463496378 -0.0035843415278320927 0.046496627602132745 44.5327126870701 12.449639112840165 -0.02224182328823189 0.04861858849696872 0.04281208329182334 -0.02557402622591551 -0.04451400879672224 0.000685951016498486 0.029146735557989113 0.018330426291534953 11.12069363376157 -0.04112240893901215 0.019426503061965868 -0.04791495369778205 0.04355494152304296 -0.0016774231914132515 0.004176541475556379 0.035299459833188024 0.0054887984229613895 4.75489581937062 0.01914616381801303 0.007354708508948158 0.0018537538114806117 -0.04587922143121871 -0.0012165061639961266 0.039065700786768576 -0.01622531267248563 0.01203442582018465 -5.577148506526252 -0.012417959171739323 -0.015600347426744104 -6.706932686337662 -0.003671445270884277 0.0475083068079869 -6.721678505629701 -0.028473834079689432 -0.005133891192868834 -0.03492612155710454 0.012920886760045443 -0.01890124407465232 8.044577291274173 3.4978858073313974 -19.246776790739737 -0.016486100014385267 10.436109850165703 0.0022290319681289323 -5.638812713528393 -15.661706756645353 3.240977488775 -0.023478739239309328 -0.013006212813525856 0.019619724649943895 -0.0464344907926161 4.685652145208356 0.04097886262773756 12.429239386035057 -8.230808104812786 6.870064201973522 0.01383529057130299 46.36704194243754 0.04420329520271647 -4.365555528302504 -14.761938894479659 -3.843464302189329 -0.03886876232915443 -0.030903284142014188 -0.006156386081003146 -0.035984906640626105 -10.76008761383474 0.005893365404716899 
